<?xml version="1.0" encoding="UTF-8"?>
<svg version="1.1" xmlns="http://www.w3.org/2000/svg" width="487" height="485">
<path d="M0 0 C1.13815659 -0.00630432 2.27631317 -0.01260864 3.44895935 -0.019104 C4.66471146 -0.01505554 5.88046356 -0.01100708 7.13305664 -0.00683594 C8.39533585 -0.00874939 9.65761505 -0.01066284 10.95814514 -0.01263428 C13.62360443 -0.01399333 16.28869513 -0.01132753 18.95410156 -0.00195312 C22.35447145 0.00942921 25.75452513 0.0028823 29.15488338 -0.00909805 C32.41845212 -0.01810386 35.68198376 -0.01177935 38.94555664 -0.00683594 C40.15928452 -0.0108844 41.37301239 -0.01493286 42.6235199 -0.019104 C56.13312935 0.0555199 56.13312935 0.0555199 60.94995117 3.62573242 C66.3376721 11.23842048 66.66221676 23.15535172 68.23071289 32.19628906 C68.62629628 34.45246352 69.02358736 36.70831543 69.42330933 38.96376038 C69.66975914 40.35670856 69.91363405 41.75011549 70.15457153 43.14402771 C70.64671257 45.94519894 71.20435364 48.55471131 72.10571289 51.25878906 C71.77571289 51.91878906 71.44571289 52.57878906 71.10571289 53.25878906 C71.71415039 53.40574219 72.32258789 53.55269531 72.94946289 53.70410156 C80.3162578 55.58913438 87.3226314 58.12767647 94.40649414 60.85644531 C96.75370808 61.74625503 99.12583862 62.57473657 101.52368164 63.31738281 C104.10571289 64.25878906 104.10571289 64.25878906 105.10571289 66.25878906 C107.10113157 66.93904543 109.1018928 67.60369403 111.10571289 68.25878906 C111.95133789 68.79503906 112.79696289 69.33128906 113.66821289 69.88378906 C116.53386308 71.50030968 117.85883487 71.59950339 121.10571289 71.25878906 C123.42615601 70.00770403 123.42615601 70.00770403 125.64477539 68.21582031 C131.35295065 64.01352815 137.34174258 60.4786632 143.48071289 56.94628906 C145.07979492 56.01719727 145.07979492 56.01719727 146.71118164 55.06933594 C152.29289031 51.83615752 152.29289031 51.83615752 155.10571289 50.25878906 C156.07371826 49.63967651 156.07371826 49.63967651 157.0612793 49.00805664 C160.16479298 47.87064519 161.95980086 48.28384373 165.10571289 49.25878906 C167.32428794 51.03954771 169.18309169 52.72702808 171.13305664 54.76269531 C171.68506241 55.31940414 172.23706818 55.87611298 172.80580139 56.44969177 C174.56365516 58.22881559 176.30315189 60.024778 178.04321289 61.82128906 C179.20812098 63.00272067 180.37412714 64.18307064 181.54125977 65.36230469 C186.7720841 70.66957792 191.92927551 76.01030233 196.74682617 81.70043945 C198.11040782 83.26417313 199.5469928 84.69757229 201.04321289 86.13378906 C203.10571289 88.25878906 203.10571289 88.25878906 203.10571289 90.25878906 C203.76571289 90.25878906 204.42571289 90.25878906 205.10571289 90.25878906 C206.83227539 91.98144531 206.83227539 91.98144531 208.73071289 94.32128906 C209.67817383 95.45244141 209.67817383 95.45244141 210.64477539 96.60644531 C212.62119312 100.19464755 212.6647557 102.1961268 212.10571289 106.25878906 C210.79278509 109.26869083 209.08624043 111.95122213 207.29321289 114.69628906 C206.8041748 115.47182129 206.31513672 116.24735352 205.8112793 117.04638672 C201.90005877 123.19223372 197.7935015 129.21198822 193.54785156 135.1315918 C191.4162194 138.13912956 189.71180125 140.60182375 189.10571289 144.25878906 C189.86763663 146.36112385 189.86763663 146.36112385 191.16821289 148.50878906 C196.67832047 158.89795839 202.10571289 171.36503194 202.10571289 183.25878906 C204.04704102 183.40380859 204.04704102 183.40380859 206.02758789 183.55175781 C213.12226625 184.26547546 220.07847189 185.67979259 227.05688477 187.10522461 C229.36240526 187.57264587 231.67124631 188.02031429 233.98071289 188.46777344 C235.46533194 188.76800143 236.9497162 189.06939332 238.43383789 189.37207031 C239.11520813 189.50140457 239.79657837 189.63073883 240.49859619 189.76399231 C246.43551961 191.01569935 250.70886661 193.16351964 254.10571289 198.25878906 C254.48461914 200.63378906 254.48461914 200.63378906 254.66821289 203.25878906 C254.88356581 206.21220057 255.16180649 208.42706987 256.10571289 211.25878906 C256.13366593 213.54004766 256.09438649 215.82232957 256.01977539 218.10253906 C255.99903458 218.7800824 255.97829376 219.45762573 255.95692444 220.15570068 C255.88769667 222.35698362 255.81000811 224.55784715 255.73071289 226.75878906 C255.67835771 228.264973 255.62603028 229.77115789 255.57373047 231.27734375 C255.46932331 234.24851448 255.3605104 237.21948965 255.24975586 240.19042969 C255.12401472 243.62422976 255.03259893 247.05794545 254.95336914 250.49316406 C254.90092817 252.16506895 254.84764016 253.83694766 254.79321289 255.50878906 C254.78306152 256.24419922 254.77291016 256.97960937 254.76245117 257.73730469 C254.56719367 262.55750759 253.41449651 264.80942138 250.10571289 268.25878906 C243.3581695 271.49831909 235.68718704 272.5763111 228.35571289 273.83691406 C226.05189151 274.25461557 223.74878607 274.67599419 221.44604492 275.09960938 C219.87539787 275.37421864 218.30046246 275.62526249 216.72241211 275.85351562 C211.38763528 276.64246923 206.82760658 277.5758118 202.10571289 280.25878906 C199.18672706 284.42069086 198.42572835 289.45456904 197.51702881 294.36419678 C196.96634119 296.90075924 195.98274979 299.06314346 194.79711914 301.36425781 C194.44327148 302.05712891 194.08942383 302.75 193.72485352 303.46386719 C192.99653897 304.83029836 192.26454435 306.19477225 191.52954102 307.55761719 C189.4354634 311.43865558 189.4354634 311.43865558 189.81542969 315.64990234 C191.19136317 318.43196954 192.71081187 321.02295665 194.37133789 323.64550781 C195.01458008 324.66708984 195.65782227 325.68867188 196.32055664 326.74121094 C196.9921582 327.79888672 197.66375977 328.8565625 198.35571289 329.94628906 C200.32092201 333.05626146 202.28354178 336.16751478 204.23266602 339.28759766 C205.45236786 341.22239581 206.69490643 343.14304403 207.96313477 345.04638672 C212.04501334 351.3449849 212.04501334 351.3449849 212.32055664 355.49316406 C210.72191605 359.13251305 208.42630271 361.72019503 205.66821289 364.50878906 C204.86601318 365.34869385 204.86601318 365.34869385 204.04760742 366.20556641 C199.80178124 370.62741144 195.45763518 374.95804923 191.06665039 379.23535156 C188.94801022 381.29957147 188.94801022 381.29957147 187.10571289 384.25878906 C186.44571289 384.25878906 185.78571289 384.25878906 185.10571289 384.25878906 C185.10571289 384.91878906 185.10571289 385.57878906 185.10571289 386.25878906 C184.44571289 386.25878906 183.78571289 386.25878906 183.10571289 386.25878906 C183.10571289 386.91878906 183.10571289 387.57878906 183.10571289 388.25878906 C181.23071289 390.38378906 181.23071289 390.38378906 179.10571289 392.25878906 C178.44571289 392.25878906 177.78571289 392.25878906 177.10571289 392.25878906 C176.44571289 393.57878906 175.78571289 394.89878906 175.10571289 396.25878906 C174.44571289 396.25878906 173.78571289 396.25878906 173.10571289 396.25878906 C173.10571289 396.91878906 173.10571289 397.57878906 173.10571289 398.25878906 C169.42157122 402.05263222 164.99576288 406.19982065 160.10571289 408.25878906 C154.96147002 407.90939684 151.25329075 405.88948334 146.98071289 403.19628906 C146.3290918 402.79506836 145.6774707 402.39384766 145.00610352 401.98046875 C137.53254193 397.34686056 130.10292946 392.609842 123.16821289 387.19628906 C120.36366975 384.98725213 120.36366975 384.98725213 117.67602539 385.47753906 C115.02379824 386.28368713 113.21598644 387.28525465 110.91821289 388.82128906 C100.41118446 395.32937384 88.78791359 400.34368322 76.70727539 402.98144531 C73.03691363 404.78355987 71.7179166 407.6511009 70.10571289 411.25878906 C69.2566222 414.10536379 68.7399404 416.96741251 68.25415039 419.89550781 C68.10918121 420.69737015 67.96421204 421.49923248 67.81484985 422.32539368 C67.35765249 424.86365983 66.91805608 427.40453349 66.48071289 429.94628906 C66.03375913 432.49821202 65.58296529 435.04932168 65.12515259 437.59931946 C64.84220468 439.17963484 64.56583614 440.76114643 64.29696655 442.34391785 C62.97574166 449.80728369 62.97574166 449.80728369 61.10571289 452.25878906 C56.68504695 455.08804763 52.98454981 455.70449521 47.79321289 455.93847656 C47.10026123 455.97149872 46.40730957 456.00452087 45.69335938 456.0385437 C38.5494147 456.3483781 31.40095997 456.4103325 24.2512207 456.38916016 C22.10629213 456.38379051 19.96157281 456.38915611 17.81665039 456.39550781 C14.29011075 456.39982857 10.76632565 456.35752491 7.24047852 456.28967285 C5.78358006 456.26859581 4.32642593 456.26163907 2.86938477 456.26696777 C-9.35814666 456.30215778 -9.35814666 456.30215778 -12.68432617 454.04296875 C-13.91949423 452.11526996 -14.39561839 450.4950369 -14.89428711 448.25878906 C-15.13727539 447.38448242 -15.38026367 446.51017578 -15.63061523 445.609375 C-16.40149402 442.63152864 -17.03592821 439.64880048 -17.64428711 436.63378906 C-17.8647168 435.61027344 -18.08514648 434.58675781 -18.31225586 433.53222656 C-19.25815059 429.02013244 -20.02126453 424.88513869 -19.89428711 420.25878906 C-20.88428711 419.92878906 -21.87428711 419.59878906 -22.89428711 419.25878906 C-22.89428711 418.26878906 -22.89428711 417.27878906 -22.89428711 416.25878906 C-22.23428711 416.25878906 -21.57428711 416.25878906 -20.89428711 416.25878906 C-21.20366211 415.00066406 -21.51303711 413.74253906 -21.83178711 412.44628906 C-22.00581055 411.73859375 -22.17983398 411.03089844 -22.35913086 410.30175781 C-22.80439416 408.60195704 -23.33862696 406.92576952 -23.89428711 405.25878906 C-25.87727986 404.25606789 -25.87727986 404.25606789 -28.35522461 403.56738281 C-29.29317871 403.26719238 -30.23113281 402.96700195 -31.19750977 402.65771484 C-32.71803955 402.18180908 -32.71803955 402.18180908 -34.26928711 401.69628906 C-44.11910059 398.46641277 -53.02045441 394.40431377 -62.05834961 389.36035156 C-62.73099854 388.99345215 -63.40364746 388.62655273 -64.09667969 388.24853516 C-65.58244687 387.43048542 -67.0480144 386.57586529 -68.50756836 385.71191406 C-71.09800944 384.96713792 -71.09800944 384.96713792 -73.96069336 386.82910156 C-75.13768365 387.66452191 -76.30232062 388.51750942 -77.45678711 389.38378906 C-78.77123235 390.31678876 -80.08913855 391.24492587 -81.40991211 392.16894531 C-82.12083008 392.66797363 -82.83174805 393.16700195 -83.56420898 393.68115234 C-87.83530674 396.57300416 -92.27356176 399.18760295 -96.70678711 401.82128906 C-98.0236853 402.60753662 -98.0236853 402.60753662 -99.3671875 403.40966797 C-108.76988388 409.0041568 -108.76988388 409.0041568 -113.89428711 408.25878906 C-117.15802571 406.22494217 -120.14905712 403.95521496 -122.89428711 401.25878906 C-122.89428711 400.59878906 -122.89428711 399.93878906 -122.89428711 399.25878906 C-123.42642822 399.05116943 -123.95856934 398.8435498 -124.50683594 398.62963867 C-127.8599819 396.70429716 -130.38990481 394.04821736 -133.09350586 391.32519531 C-133.98523247 390.43633888 -133.98523247 390.43633888 -134.89497375 389.52952576 C-136.1539607 388.27189882 -137.41042939 387.01174656 -138.66455078 385.74926758 C-140.55087074 383.85237866 -142.44743109 381.96621962 -144.34545898 380.08105469 C-149.81161998 374.62532238 -155.20729576 369.10396376 -160.28881836 363.28613281 C-160.99498291 362.47781006 -161.70114746 361.6694873 -162.42871094 360.83666992 C-164.38262895 357.39981829 -164.33682796 355.15891848 -163.89428711 351.25878906 C-162.75195312 348.66674805 -162.75195312 348.66674805 -161.14819336 346.25488281 C-160.56166992 345.35568115 -159.97514648 344.45647949 -159.37084961 343.5300293 C-158.42338867 342.12732788 -158.42338867 342.12732788 -157.45678711 340.69628906 C-156.82385742 339.72699463 -156.19092773 338.7577002 -155.53881836 337.7590332 C-152.70762523 333.43132144 -149.82286756 329.1433792 -146.89038086 324.88378906 C-146.24830688 323.93354858 -146.24830688 323.93354858 -145.59326172 322.96411133 C-144.47118895 321.30967661 -143.32422332 319.67220173 -142.17553711 318.03613281 C-140.61228788 315.39269706 -140.61228788 315.39269706 -141.43334961 312.92285156 C-141.91545898 312.04371094 -142.39756836 311.16457031 -142.89428711 310.25878906 C-143.50480996 308.92822866 -144.10544057 307.59310793 -144.69897461 306.25488281 C-145.72615899 303.98996093 -146.75545178 301.72630069 -147.79663086 299.46777344 C-148.1356543 298.71689453 -148.47467773 297.96601563 -148.82397461 297.19238281 C-149.18894043 296.41419189 -149.55390625 295.63600098 -149.92993164 294.83422852 C-150.89428711 292.25878906 -150.89428711 292.25878906 -151.29223633 289.18920898 C-151.91687677 285.40672875 -152.53407984 283.31276765 -154.89428711 280.25878906 C-161.4033046 276.86549133 -169.12532131 275.99147809 -176.26928711 274.69628906 C-179.25035769 274.10619515 -182.22801131 273.50127588 -185.20498657 272.8908844 C-187.05400354 272.51720151 -188.90602591 272.15800523 -190.76107788 271.8155365 C-195.56397794 270.90174877 -199.67903748 269.8774278 -203.89428711 267.25878906 C-208.30920129 260.63641779 -208.19274262 253.31504115 -208.15991211 245.61816406 C-208.16182556 244.61472961 -208.16373901 243.61129517 -208.16571045 242.57745361 C-208.16706557 240.46292875 -208.16341636 238.34839538 -208.1550293 236.23388672 C-208.14436561 233.0323572 -208.15492447 229.83139455 -208.16772461 226.62988281 C-208.19553359 200.2370965 -208.19553359 200.2370965 -203.53100586 194.20019531 C-198.84529633 191.13161491 -193.10493337 190.30246018 -187.70678711 189.19628906 C-186.56161621 188.94733887 -185.41644531 188.69838867 -184.23657227 188.44189453 C-180.79250619 187.69719267 -177.344113 186.9762685 -173.89428711 186.25878906 C-171.91615611 185.8368591 -169.93827156 185.41377119 -167.96069336 184.98925781 C-163.60913248 184.05941676 -159.25357846 183.15165596 -154.89428711 182.25878906 C-154.69834961 181.25203125 -154.50241211 180.24527344 -154.30053711 179.20800781 C-152.35641803 169.86927288 -149.56201424 161.37765602 -145.62475586 152.68139648 C-142.83655748 146.70110676 -142.83655748 146.70110676 -141.89428711 140.25878906 C-143.24115804 137.86771483 -144.50981022 135.99451325 -146.20678711 133.88378906 C-147.1355476 132.66177074 -148.05987067 131.43636991 -148.98022461 130.20800781 C-149.70097168 129.24967041 -149.70097168 129.24967041 -150.4362793 128.27197266 C-152.90962378 124.85683558 -155.12049597 121.28460962 -157.33178711 117.69628906 C-157.74404541 117.03000488 -158.15630371 116.3637207 -158.58105469 115.67724609 C-159.34833381 114.43182127 -160.1122283 113.18430232 -160.87207031 111.93432617 C-161.78396893 110.43961392 -162.71665093 108.95762675 -163.65209961 107.47753906 C-165.33599965 104.46981824 -165.38045907 102.66199277 -164.89428711 99.25878906 C-162.49140468 94.89800244 -159.47904461 91.67681365 -155.89428711 88.25878906 C-152.35269103 84.81061638 -148.91520377 81.33395775 -145.70678711 77.57128906 C-142.11610154 73.39701577 -138.23034429 69.56274169 -134.31323242 65.69946289 C-131.40195146 62.81343752 -128.61872748 59.8808898 -125.95678711 56.75878906 C-121.71973229 51.8360273 -118.59277235 48.80190949 -111.89428711 48.25878906 C-109.28100586 49.12207031 -109.28100586 49.12207031 -106.58178711 50.57128906 C-105.55569336 51.11785156 -104.52959961 51.66441406 -103.47241211 52.22753906 C-98.46412362 55.03860591 -93.51460498 57.9563293 -88.59423828 60.91821289 C-87.89790283 61.33611084 -87.20156738 61.75400879 -86.48413086 62.18457031 C-85.86401123 62.56009033 -85.2438916 62.93561035 -84.60498047 63.32250977 C-82.74030259 64.4090451 -82.74030259 64.4090451 -79.89428711 65.25878906 C-78.20724518 66.56624656 -76.54068675 67.90050936 -74.89428711 69.25878906 C-72.11857122 71.53968429 -72.11857122 71.53968429 -69.18725586 71.12207031 C-65.17742731 70.07085785 -61.84840342 68.38988775 -58.20678711 66.44628906 C-51.91965419 63.18629421 -45.64963542 60.43424021 -38.89428711 58.25878906 C-39.22428711 57.59878906 -39.55428711 56.93878906 -39.89428711 56.25878906 C-39.32581055 56.20980469 -38.75733398 56.16082031 -38.17163086 56.11035156 C-33.18347582 55.62735825 -28.66829133 54.78240743 -23.89428711 53.25878906 C-23.89428711 51.60878906 -23.89428711 49.95878906 -23.89428711 48.25878906 C-23.23428711 48.25878906 -22.57428711 48.25878906 -21.89428711 48.25878906 C-21.84892822 47.54625977 -21.80356934 46.83373047 -21.75683594 46.09960938 C-21.1913627 38.28556709 -20.05960811 30.69884849 -18.58178711 23.00878906 C-18.38133789 21.88988281 -18.18088867 20.77097656 -17.97436523 19.61816406 C-16.75965153 13.23997692 -15.50870397 7.70920175 -11.89428711 2.25878906 C-7.85947473 0.52246706 -4.3654372 0.00697463 0 0 Z M-1.89428711 109.25878906 C-1.89428711 110.24878906 -1.89428711 111.23878906 -1.89428711 112.25878906 C-2.55428711 112.25878906 -3.21428711 112.25878906 -3.89428711 112.25878906 C-3.89428711 111.59878906 -3.89428711 110.93878906 -3.89428711 110.25878906 C-25.97831896 113.27260988 -45.03279538 126.32710891 -60.89428711 141.25878906 C-61.49756836 141.79761719 -62.10084961 142.33644531 -62.72241211 142.89160156 C-71.40205 150.96285362 -77.8606611 161.35948342 -82.83569336 172.02832031 C-83.89428711 174.25878906 -83.89428711 174.25878906 -84.89428711 175.25878906 C-99.34872265 204.50122404 -100.40791829 239.91768765 -90.10375977 270.61376953 C-88.33854495 275.3192463 -86.21577361 279.80517841 -83.89428711 284.25878906 C-83.42418213 285.1762793 -83.42418213 285.1762793 -82.94458008 286.11230469 C-78.51829674 294.63633178 -73.17189704 302.00177758 -66.89428711 309.25878906 C-66.18788086 310.185625 -65.48147461 311.11246094 -64.75366211 312.06738281 C-64.14006836 312.79054688 -63.52647461 313.51371094 -62.89428711 314.25878906 C-62.23428711 314.25878906 -61.57428711 314.25878906 -60.89428711 314.25878906 C-60.56428711 315.24878906 -60.23428711 316.23878906 -59.89428711 317.25878906 C-59.23428711 317.25878906 -58.57428711 317.25878906 -57.89428711 317.25878906 C-57.89428711 317.91878906 -57.89428711 318.57878906 -57.89428711 319.25878906 C-44.0309005 331.79611261 -26.23001025 342.17212887 -7.89428711 346.25878906 C-6.84499023 346.49597656 -5.79569336 346.73316406 -4.71459961 346.97753906 C28.59695667 354.02015138 62.00531484 348.63298054 91.06665039 330.60498047 C97.08030011 326.63476201 102.80677452 322.13898949 108.10571289 317.25878906 C108.10571289 316.59878906 108.10571289 315.93878906 108.10571289 315.25878906 C109.42571289 314.59878906 110.74571289 313.93878906 112.10571289 313.25878906 C112.10571289 312.59878906 112.10571289 311.93878906 112.10571289 311.25878906 C112.76571289 311.25878906 113.42571289 311.25878906 114.10571289 311.25878906 C115.74279729 309.39957239 117.24448429 307.54669504 118.73071289 305.57128906 C119.17656738 304.97968994 119.62242187 304.38809082 120.08178711 303.77856445 C134.97725913 283.7380124 144.23201821 260.41391501 145.10571289 235.25878906 C145.15727539 234.17210937 145.20883789 233.08542969 145.26196289 231.96582031 C146.01595891 202.65422503 137.03516818 175.33406274 119.10571289 152.25878906 C118.55657227 151.47375 118.00743164 150.68871094 117.44165039 149.87988281 C116.78036133 149.07744141 116.78036133 149.07744141 116.10571289 148.25878906 C115.44571289 148.25878906 114.78571289 148.25878906 114.10571289 148.25878906 C113.89043945 147.70964844 113.67516602 147.16050781 113.45336914 146.59472656 C111.65207733 143.47248743 109.19726467 141.26688498 106.54321289 138.88378906 C106.00962158 138.40135742 105.47603027 137.91892578 104.92626953 137.421875 C98.49969541 131.62996221 98.49969541 131.62996221 91.10571289 127.25878906 C90.11571289 127.58878906 89.12571289 127.91878906 88.10571289 128.25878906 C88.00548828 127.63931396 87.90526367 127.01983887 87.80200195 126.3815918 C87.22893966 123.86959206 87.22893966 123.86959206 83.96508789 122.29394531 C82.60350719 121.61955527 81.23299148 120.96301146 79.85571289 120.32128906 C79.12771484 119.97356445 78.3997168 119.62583984 77.6496582 119.26757812 C75.4773118 118.24367568 73.29451974 117.24693474 71.10571289 116.25878906 C70.03321289 115.76765625 68.96071289 115.27652344 67.85571289 114.77050781 C46.3586754 105.72943605 20.75952176 104.24256791 -1.89428711 109.25878906 Z M-21.89428711 417.25878906 C-20.89428711 419.25878906 -20.89428711 419.25878906 -20.89428711 419.25878906 Z " fill="#4B9F0C" transform="translate(213.894287109375,14.7412109375)"/>
<path d="M0 0 C1.13815659 -0.00630432 2.27631317 -0.01260864 3.44895935 -0.019104 C4.66471146 -0.01505554 5.88046356 -0.01100708 7.13305664 -0.00683594 C8.39533585 -0.00874939 9.65761505 -0.01066284 10.95814514 -0.01263428 C13.62360443 -0.01399333 16.28869513 -0.01132753 18.95410156 -0.00195312 C22.35447145 0.00942921 25.75452513 0.0028823 29.15488338 -0.00909805 C32.41845212 -0.01810386 35.68198376 -0.01177935 38.94555664 -0.00683594 C40.15928452 -0.0108844 41.37301239 -0.01493286 42.6235199 -0.019104 C56.12587924 0.05547986 56.12587924 0.05547986 60.94946289 3.62207031 C64.85553754 9.15127733 65.53836547 17.03189075 66.79321289 23.57128906 C66.92469727 24.25280029 67.05618164 24.93431152 67.19165039 25.63647461 C67.84741871 29.22072442 68.25372684 32.61482667 68.10571289 36.25878906 C67.11571289 36.75378906 67.11571289 36.75378906 66.10571289 37.25878906 C66.14696289 36.57816406 66.18821289 35.89753906 66.23071289 35.19628906 C66.07983965 31.65076794 65.08768382 28.66680583 64.10571289 25.25878906 C63.91459262 23.90785673 63.74813879 22.55321942 63.60571289 21.19628906 C63.14677643 17.58216445 62.387189 14.65093171 61.10571289 11.25878906 C60.79633789 10.35128906 60.48696289 9.44378906 60.16821289 8.50878906 C59.19417273 5.94544238 59.19417273 5.94544238 56.10571289 4.25878906 C54.45021758 3.87379015 52.78346959 3.53085772 51.10571289 3.25878906 C51.10571289 2.59878906 51.10571289 1.93878906 51.10571289 1.25878906 C49.99711914 1.41476563 48.88852539 1.57074219 47.74633789 1.73144531 C46.28284914 1.92845341 44.81930445 2.12504625 43.35571289 2.32128906 C42.62610352 2.42505859 41.89649414 2.52882813 41.14477539 2.63574219 C35.54780647 3.37352445 35.54780647 3.37352445 33.31835938 2.79492188 C28.12829402 1.53734894 22.52633301 1.99177236 17.19921875 1.96362305 C15.68740456 1.95213436 14.17562993 1.93173177 12.6640625 1.90209961 C0.28433171 1.48974697 0.28433171 1.48974697 -10.89428711 6.25878906 C-14.11342821 10.48391175 -14.27075815 14.75483932 -14.65209961 19.88769531 C-14.95685063 22.87130608 -15.91253293 25.42902701 -16.89428711 28.25878906 C-18.02677873 33.4945112 -18.88093969 38.73968075 -19.39428711 44.07128906 C-19.86890435 48.71754203 -20.49628929 52.86079125 -23.89428711 56.25878906 C-25.81225586 56.78613281 -25.81225586 56.78613281 -28.08178711 57.19628906 C-32.31910039 58.0653088 -35.93531923 59.48407932 -39.89428711 61.25878906 C-41.68197796 61.91554744 -43.47404121 62.56047281 -45.26928711 63.19628906 C-49.66280272 64.76583464 -53.89584749 66.53981203 -58.11694336 68.52441406 C-59.89428711 69.25878906 -59.89428711 69.25878906 -61.89428711 69.25878906 C-61.89428711 69.91878906 -61.89428711 70.57878906 -61.89428711 71.25878906 C-64.20428711 72.24878906 -66.51428711 73.23878906 -68.89428711 74.25878906 C-68.89428711 73.26878906 -68.89428711 72.27878906 -68.89428711 71.25878906 C-48.48077531 61.33939089 -48.48077531 61.33939089 -38.89428711 58.25878906 C-39.22428711 57.59878906 -39.55428711 56.93878906 -39.89428711 56.25878906 C-39.32581055 56.20980469 -38.75733398 56.16082031 -38.17163086 56.11035156 C-33.18347582 55.62735825 -28.66829133 54.78240743 -23.89428711 53.25878906 C-23.89428711 51.60878906 -23.89428711 49.95878906 -23.89428711 48.25878906 C-23.23428711 48.25878906 -22.57428711 48.25878906 -21.89428711 48.25878906 C-21.84892822 47.54625977 -21.80356934 46.83373047 -21.75683594 46.09960938 C-21.1913627 38.28556709 -20.05960811 30.69884849 -18.58178711 23.00878906 C-18.38133789 21.88988281 -18.18088867 20.77097656 -17.97436523 19.61816406 C-16.75965153 13.23997692 -15.50870397 7.70920175 -11.89428711 2.25878906 C-7.85947473 0.52246706 -4.3654372 0.00697463 0 0 Z " fill="#64B613" transform="translate(213.894287109375,14.7412109375)"/>
<path d="M0 0 C3.43365396 1.84770617 6.72594936 3.88416095 10 6 C7.62272827 6.83996934 6.4508873 7.18163274 4.0703125 6.22265625 C3.42835937 5.83980469 2.78640625 5.45695312 2.125 5.0625 C-1.452252 3.16436629 -3.88774457 2.17754891 -8 3 C-9.71907426 4.61255675 -11.37568611 6.29203046 -13 8 C-14.04908501 9.05507313 -15.10130257 10.10703858 -16.15625 11.15625 C-16.70410156 11.70410156 -17.25195312 12.25195312 -17.81640625 12.81640625 C-22.84375 17.84375 -22.84375 17.84375 -24.46508789 19.46484375 C-25.86142069 20.86139865 -27.25692782 22.25877897 -28.65234375 23.65625 C-30.12884639 25.1302959 -31.60996748 26.59974456 -33.09765625 28.0625 C-36.02796886 30.95203291 -38.81701466 33.76886062 -41.375 37 C-41.91125 37.66 -42.4475 38.32 -43 39 C-43.66 39 -44.32 39 -45 39 C-45.39638672 39.87205078 -45.39638672 39.87205078 -45.80078125 40.76171875 C-47.04200806 43.07840592 -48.48054415 44.82172726 -50.1875 46.8125 C-52.55613196 49.91483016 -52.99458647 50.67518812 -53.0625 54.75 C-52.05910298 57.8192144 -51.01677764 59.54479243 -49 62 C-49 62.99 -49 63.98 -49 65 C-48.34 65 -47.68 65 -47 65 C-45.2734375 67.30078125 -45.2734375 67.30078125 -43.375 70.3125 C-42.74335937 71.29863281 -42.11171875 72.28476563 -41.4609375 73.30078125 C-40 76 -40 76 -40 79 C-39.34 79.33 -38.68 79.66 -38 80 C-38.99 80 -39.98 80 -41 80 C-42.39453125 78.33520508 -42.39453125 78.33520508 -43.8125 76.01953125 C-44.58980469 74.7675293 -44.58980469 74.7675293 -45.3828125 73.49023438 C-45.91648437 72.60658203 -46.45015625 71.72292969 -47 70.8125 C-47.53367187 69.94818359 -48.06734375 69.08386719 -48.6171875 68.19335938 C-49.64380204 66.52702607 -50.66418162 64.85683109 -51.67749023 63.18237305 C-52.71664591 61.46758394 -53.77806378 59.76628365 -54.84765625 58.0703125 C-56.47461761 55.14729717 -56.47114277 53.29799939 -56 50 C-53.59711757 45.63921338 -50.5847575 42.41802459 -47 39 C-43.45840392 35.55182731 -40.02091666 32.07516869 -36.8125 28.3125 C-33.22181443 24.13822671 -29.33605718 20.30395263 -25.41894531 16.44067383 C-22.50766435 13.55464846 -19.72444037 10.62210074 -17.0625 7.5 C-12.04439349 1.62722815 -7.9653924 -2.17237975 0 0 Z " fill="#5DAD12" transform="translate(105,64)"/>
<path d="M0 0 C1.98 0.99 1.98 0.99 4 2 C4 2.66 4 3.32 4 4 C4.89307861 3.98952637 5.78615723 3.97905273 6.70629883 3.96826172 C10.02175477 3.93416408 13.33702421 3.90909363 16.65258789 3.89013672 C18.08718812 3.880083 19.52176789 3.86643806 20.95629883 3.84912109 C23.01909438 3.82484451 25.08161885 3.81351081 27.14453125 3.8046875 C28.38565674 3.79421387 29.62678223 3.78374023 30.90551758 3.77294922 C34 4 34 4 37 6 C37 5.34 37 4.68 37 4 C41.66267157 3.80784233 46.3255892 3.62910509 50.98925781 3.46289062 C52.57631279 3.4044236 54.16323619 3.34226486 55.75 3.27636719 C58.02840213 3.1823831 60.3069448 3.10160477 62.5859375 3.0234375 C63.29744965 2.99124115 64.00896179 2.9590448 64.74203491 2.9258728 C66.49404733 2.8723687 68.24868084 2.92725815 70 3 C70.99 3.99 70.99 3.99 72 5 C61.79741108 8.40086297 48.86682449 7.16211987 38.14550781 7.13037109 C36.00057924 7.12500145 33.85585992 7.13036704 31.7109375 7.13671875 C27.47266189 7.14046196 23.23732521 7.08729025 19 7 C18.25669434 6.98674683 17.51338867 6.97349365 16.74755859 6.95983887 C14.53856666 6.91047791 12.33271115 6.83128019 10.125 6.7421875 C8.17980469 6.67427002 8.17980469 6.67427002 6.1953125 6.60498047 C3 6 3 6 1.0546875 4.07861328 C0 2 0 2 0 0 Z " fill="#3A870A" transform="translate(200,464)"/>
<path d="M0 0 C2.29717178 1.87214198 4.24470754 3.65906837 6.2734375 5.78515625 C7.12634872 6.64867958 7.12634872 6.64867958 7.99649048 7.52964783 C9.80144859 9.36248852 11.58819926 11.21197084 13.375 13.0625 C14.5990972 14.31168779 15.8243459 15.55974832 17.05078125 16.80664062 C20.04734981 19.85819708 23.02771345 22.92479494 26 26 C25.505 27.485 25.505 27.485 25 29 C24.505 27.515 24.505 27.515 24 26 C22.66685052 25.33296575 21.33347934 24.66637457 20 24 C18.39341924 22.44246979 16.84287878 20.82633928 15.33203125 19.17578125 C14.43806641 18.23025391 13.54410156 17.28472656 12.62304688 16.31054688 C11.21266297 14.81374781 9.81163455 13.31154398 8.43139648 11.78686523 C3.34348718 5.80818295 3.34348718 5.80818295 -3.45800781 2.45214844 C-8.393348 2.82827331 -12.26834774 4.91956767 -16.375 7.625 C-19.3984375 9.6015625 -19.3984375 9.6015625 -22 11 C-22.99 10.67 -23.98 10.34 -25 10 C-22.96028888 8.72593712 -20.91834736 7.45570798 -18.875 6.1875 C-18.30523437 5.83107422 -17.73546875 5.47464844 -17.1484375 5.10742188 C-15.4442804 4.0520064 -13.72213117 3.02582528 -12 2 C-10.99195313 1.39800781 -9.98390625 0.79601562 -8.9453125 0.17578125 C-5.27212224 -1.29057189 -3.78879961 -1.1043457 0 0 Z " fill="#61B112" transform="translate(379,64)"/>
<path d="M0 0 C2.31 0 4.62 0 7 0 C7 0.33 7 0.66 7 1 C7.73605469 0.98839844 8.47210938 0.97679688 9.23046875 0.96484375 C10.20628906 0.95582031 11.18210938 0.94679688 12.1875 0.9375 C13.15042969 0.92589844 14.11335937 0.91429688 15.10546875 0.90234375 C17.8732818 0.99572476 20.30708376 1.38058533 23 2 C23.68320312 2.14179687 24.36640625 2.28359375 25.0703125 2.4296875 C37.21199019 5.06115377 48.4348572 8.52173707 59.5 14.1875 C60.22703125 14.55552734 60.9540625 14.92355469 61.703125 15.30273438 C63.4706325 16.19811646 65.23559239 17.09852475 67 18 C67 18.33 67 18.66 67 19 C62.0770907 19.568028 58.6830068 17.52985925 54.5 15.25 C36.95691859 6.12863714 18.50407042 3.65465051 -1 3 C-0.67 2.01 -0.34 1.02 0 0 Z " fill="#5AAB12" transform="translate(235,119)"/>
<path d="M0 0 C0.33 0 0.66 0 1 0 C1.06058594 0.68707031 1.12117188 1.37414062 1.18359375 2.08203125 C1.26738281 2.98308594 1.35117187 3.88414062 1.4375 4.8125 C1.51871094 5.70582031 1.59992188 6.59914062 1.68359375 7.51953125 C1.93489767 10.12743559 1.93489767 10.12743559 3 13 C3.02795304 15.28125859 2.9886736 17.56354051 2.9140625 19.84375 C2.89314041 20.52151993 2.87221832 21.19928986 2.85066223 21.89759827 C2.78102044 24.09862108 2.7032619 26.29926822 2.625 28.5 C2.57534306 30.00251424 2.52594564 31.50503709 2.47680664 33.00756836 C2.11924564 43.67903837 1.65308382 54.34222789 1 65 C0.67 65 0.34 65 0 65 C0 43.55 0 22.1 0 0 Z " fill="#46910F" transform="translate(467,213)"/>
<path d="M0 0 C3.84904344 1.28301448 5.01929806 3.1160378 7.5625 6.25 C8.34753906 7.20390625 9.13257813 8.1578125 9.94140625 9.140625 C11.81499827 11.74303365 12.98034586 13.97961908 14 17 C14.66 17 15.32 17 16 17 C16.33 18.32 16.66 19.64 17 21 C16.34 21.33 15.68 21.66 15 22 C14.484375 21.195625 13.96875 20.39125 13.4375 19.5625 C10.98093207 15.84660844 8.19156041 12.41310404 5.390625 8.953125 C4 7 4 7 4 5 C3.34 5 2.68 5 2 5 C1.34 3.35 0.68 1.7 0 0 Z " fill="#58A811" transform="translate(326,158)"/>
<path d="M0 0 C3.18771167 2.54841785 3.63279133 4.85539605 4.25 8.8125 C4.42015625 9.82957031 4.5903125 10.84664063 4.765625 11.89453125 C5.00963044 15.12760337 4.66198648 17.83665032 4 21 C3.67 21 3.34 21 3 21 C3 19.35 3 17.7 3 16 C2.01 15.67 1.02 15.34 0 15 C0 14.01 0 13.02 0 12 C0.66 12 1.32 12 2 12 C1.690625 10.741875 1.38125 9.48375 1.0625 8.1875 C0.88847656 7.47980469 0.71445313 6.77210938 0.53515625 6.04296875 C0.08989295 4.34316798 -0.44433985 2.66698046 -1 1 C-0.67 0.67 -0.34 0.34 0 0 Z M1 13 C2 15 2 15 2 15 Z " fill="#408C0B" transform="translate(191,419)"/>
<path d="M0 0 C2.97 0.99 5.94 1.98 9 3 C9 3.66 9 4.32 9 5 C10.65 5.33 12.3 5.66 14 6 C14 6.66 14 7.32 14 8 C15.98 8 17.96 8 20 8 C20.33 7.34 20.66 6.68 21 6 C21.99 5.34 22.98 4.68 24 4 C24 4.99 24 5.98 24 7 C21.30409834 9.22015431 19.76915932 10.04807246 16.25 9.828125 C12.41423619 8.85074287 9.41047542 7.12589586 6.125 5 C5.53203125 4.63132812 4.9390625 4.26265625 4.328125 3.8828125 C2.8623617 2.95742277 1.42780742 1.9829416 0 1 C0 0.67 0 0.34 0 0 Z " fill="#3D880B" transform="translate(355,413)"/>
<path d="M0 0 C4.45859862 0.13835803 8.91679786 0.28694579 13.375 0.4375 C14.64601562 0.47681641 15.91703125 0.51613281 17.2265625 0.55664062 C18.43828125 0.59853516 19.65 0.64042969 20.8984375 0.68359375 C22.01911621 0.72025146 23.13979492 0.75690918 24.29443359 0.79467773 C27 1 27 1 29 2 C29.33 2.66 29.66 3.32 30 4 C29.31373535 3.96447021 28.6274707 3.92894043 27.92041016 3.89233398 C24.82219604 3.73508689 21.72363604 3.58619047 18.625 3.4375 C17.00464844 3.35338867 17.00464844 3.35338867 15.3515625 3.26757812 C14.3203125 3.21923828 13.2890625 3.17089844 12.2265625 3.12109375 C10.79691162 3.05039673 10.79691162 3.05039673 9.33837891 2.97827148 C6.97593809 2.82916282 6.97593809 2.82916282 5 4 C4.01 3.67 3.02 3.34 2 3 C2 2.34 2 1.68 2 1 C1.34 0.67 0.68 0.34 0 0 Z " fill="#46920C" transform="translate(215,363)"/>
<path d="M0 0 C0.66 0.33 1.32 0.66 2 1 C-0.38817162 2.8234216 -2.78461076 4.63365663 -5.1875 6.4375 C-6.19780273 7.2119043 -6.19780273 7.2119043 -7.22851562 8.00195312 C-10.75114064 10.63103423 -13.47096241 12.65702434 -18 13 C-14.45015323 9.20372859 -10.77019369 6.32081929 -6.3125 3.625 C-5.44141602 3.07392578 -5.44141602 3.07392578 -4.55273438 2.51171875 C-3.07487544 1.60620981 -1.54044153 0.79438868 0 0 Z " fill="#63B413" transform="translate(352,75)"/>
<path d="M0 0 C0.66 0.33 1.32 0.66 2 1 C0.54768456 7.07331911 -1.79006307 12.62952859 -5 18 C-5.66 18.33 -6.32 18.66 -7 19 C-6.4253379 14.21357393 -5.01754357 10.46211213 -2.9375 6.125 C-2.38964844 4.97257813 -1.84179688 3.82015625 -1.27734375 2.6328125 C-0.85582031 1.76398438 -0.43429688 0.89515625 0 0 Z " fill="#56A711" transform="translate(72,159)"/>
<path d="M0 0 C0 0.99 0 1.98 0 3 C-0.66 3 -1.32 3 -2 3 C-2 3.66 -2 4.32 -2 5 C-2.66 5 -3.32 5 -4 5 C-4 5.66 -4 6.32 -4 7 C-5.875 9.125 -5.875 9.125 -8 11 C-8.66 11 -9.32 11 -10 11 C-10.66 12.32 -11.32 13.64 -12 15 C-12.99 14.67 -13.98 14.34 -15 14 C-14.67 13.34 -14.34 12.68 -14 12 C-13.01 12 -12.02 12 -11 12 C-10.67 10.68 -10.34 9.36 -10 8 C-9.34 8 -8.68 8 -8 8 C-7.34 6.68 -6.68 5.36 -6 4 C-5.01 4 -4.02 4 -3 4 C-3 3.34 -3 2.68 -3 2 C-2.01 1.34 -1.02 0.68 0 0 Z " fill="#3C880A" transform="translate(401,396)"/>
<path d="M0 0 C-1.2065625 0.4021875 -1.2065625 0.4021875 -2.4375 0.8125 C-3.283125 1.204375 -4.12875 1.59625 -5 2 C-5.33 2.99 -5.66 3.98 -6 5 C-7.155 5.12375 -8.31 5.2475 -9.5 5.375 C-13.78350375 5.90278885 -17.83352672 6.88398037 -22 8 C-20.15645207 4.31290415 -15.27735287 3.65674335 -11.5625 2.3125 C-10.67755859 1.97927734 -9.79261719 1.64605469 -8.88085938 1.30273438 C-8.03458984 0.99271484 -7.18832031 0.68269531 -6.31640625 0.36328125 C-5.53724854 0.07751221 -4.75809082 -0.20825684 -3.95532227 -0.50268555 C-2 -1 -2 -1 0 0 Z " fill="#46920B" transform="translate(291,354)"/>
<path d="M0 0 C0.66 0 1.32 0 2 0 C0.48446596 3.47775179 -1.5773456 5.9557984 -4.125 8.75 C-5.21167969 9.94882813 -5.21167969 9.94882813 -6.3203125 11.171875 C-6.87460938 11.77515625 -7.42890625 12.3784375 -8 13 C-8.99 12.67 -9.98 12.34 -11 12 C-9.54234835 10.37438849 -8.08385614 8.74953066 -6.625 7.125 C-5.81289062 6.22007812 -5.00078125 5.31515625 -4.1640625 4.3828125 C-2.80923795 2.89103817 -1.42494565 1.42494565 0 0 Z " fill="#57A811" transform="translate(153,153)"/>
<path d="M0 0 C3.10009769 1.38238352 5.28263873 2.98578859 7.6875 5.375 C8.28949219 5.96023437 8.89148438 6.54546875 9.51171875 7.1484375 C11.10135013 9.12608914 11.5905426 10.5214179 12 13 C11.34 13 10.68 13 10 13 C10 12.34 10 11.68 10 11 C9.34 11 8.68 11 8 11 C6.56197818 9.4089357 5.19674665 7.7513985 3.875 6.0625 C3.15054687 5.14597656 2.42609375 4.22945313 1.6796875 3.28515625 C0 1 0 1 0 0 Z " fill="#5DAD11" transform="translate(406,94)"/>
<path d="M0 0 C0.99 0.33 1.98 0.66 3 1 C-0.96 4.96 -4.92 8.92 -9 13 C-9 8.86218946 -7.28490393 7.79080004 -4.5 4.8125 C-3.6646875 3.91144531 -2.829375 3.01039063 -1.96875 2.08203125 C-0.99421875 1.05142578 -0.99421875 1.05142578 0 0 Z " fill="#408E0B" transform="translate(413,382)"/>
<path d="M0 0 C-1.65 0.33 -3.3 0.66 -5 1 C-5 1.66 -5 2.32 -5 3 C-6.26607607 3.53229326 -7.53810412 4.05044544 -8.8125 4.5625 C-9.52019531 4.85253906 -10.22789062 5.14257812 -10.95703125 5.44140625 C-13 6 -13 6 -16 5 C-11.82639458 1.18931679 -5.49060888 -1.83020296 0 0 Z " fill="#5AAE11" transform="translate(205,125)"/>
<path d="M0 0 C3.98021881 2.16069021 6.97250324 4.62650361 10 8 C10 8.66 10 9.32 10 10 C10.66 10 11.32 10 12 10 C12.33 11.32 12.66 12.64 13 14 C8.445213 10.19985226 4.04720741 6.34334454 0 2 C0 1.34 0 0.68 0 0 Z " fill="#3E870A" transform="translate(59,382)"/>
<path d="M0 0 C0.66 0 1.32 0 2 0 C1.03644647 10.55808656 1.03644647 10.55808656 0 15 C-2.60329886 11.09505171 -1.80930803 8.37202275 -1 4 C-0.69830934 2.65915264 -0.38482319 1.3193938 0 0 Z " fill="#3B8A0A" transform="translate(277,448)"/>
<path d="M0 0 C0.33 0.66 0.66 1.32 1 2 C1.60328125 2.28617187 2.2065625 2.57234375 2.828125 2.8671875 C5.45033031 4.23488451 6.85585023 5.86659066 8.75 8.125 C9.36359375 8.84945313 9.9771875 9.57390625 10.609375 10.3203125 C11.29773438 11.15175781 11.29773438 11.15175781 12 12 C11.67 12.66 11.34 13.32 11 14 C7.04 10.04 3.08 6.08 -1 2 C-0.67 1.34 -0.34 0.68 0 0 Z " fill="#3D8609" transform="translate(76,398)"/>
<path d="M0 0 C1.66666667 0.66666667 3.33333333 1.33333333 5 2 C6.3303125 2.5259375 6.3303125 2.5259375 7.6875 3.0625 C10 4 10 4 12 5 C11.67 5.99 11.34 6.98 11 8 C9 7 7 6 5 5 C4.236875 4.67 3.47375 4.34 2.6875 4 C1 3 1 3 0 0 Z " fill="#60B013" transform="translate(122,75)"/>
<path d="M0 0 C-3.08809695 1.76462683 -4.23312136 2 -8 2 C-8 2.99 -8 3.98 -8 5 C-8.66 5 -9.32 5 -10 5 C-10 4.34 -10 3.68 -10 3 C-10.99 2.67 -11.98 2.34 -13 2 C-4.738041 -1.62870159 -4.738041 -1.62870159 0 0 Z " fill="#59A912" transform="translate(220,122)"/>
<path d="M0 0 C0.66 0.33 1.32 0.66 2 1 C1.67 4.96 1.34 8.92 1 13 C0.34 12.34 -0.32 11.68 -1 11 C-0.9765625 8.3984375 -0.9765625 8.3984375 -0.625 5.375 C-0.51414062 4.37210937 -0.40328125 3.36921875 -0.2890625 2.3359375 C-0.19367188 1.56507813 -0.09828125 0.79421875 0 0 Z " fill="#3F900B" transform="translate(281,425)"/>
<path d="M0 0 C0.66 0 1.32 0 2 0 C0.6062718 4.43458973 -1.60582235 6.87378374 -5 10 C-4.49890042 5.61537866 -3.01704885 3.1999003 0 0 Z " fill="#57A810" transform="translate(407,146)"/>
<path d="M0 0 C2.62901288 1.52206009 4.84365964 2.84365964 7 5 C6.67 5.99 6.34 6.98 6 8 C1.3125 4.38671875 1.3125 4.38671875 0 3 C0 2.01 0 1.02 0 0 Z " fill="#5AAB11" transform="translate(317,149)"/>
<path d="M0 0 C1 3 1 3 0.22265625 4.82421875 C-0.8515625 6.54947917 -1.92578125 8.27473958 -3 10 C-3.75 8.375 -3.75 8.375 -4 6 C-2.0625 2.75 -2.0625 2.75 0 0 Z " fill="#59A811" transform="translate(418,129)"/>
<path d="M0 0 C0.33 0.66 0.66 1.32 1 2 C2.97888961 2.72693904 4.97954558 3.39816251 7 4 C6.67 4.66 6.34 5.32 6 6 C4.02 5.34 2.04 4.68 0 4 C0 3.34 0 2.68 0 2 C-0.66 1.67 -1.32 1.34 -2 1 C-1.34 0.67 -0.68 0.34 0 0 Z " fill="#63B413" transform="translate(318,79)"/>
<path d="M0 0 C0.66 0.99 1.32 1.98 2 3 C1.01 3.33 0.02 3.66 -1 4 C-0.67 6.31 -0.34 8.62 0 11 C-0.66 10.67 -1.32 10.34 -2 10 C-2.25 3.375 -2.25 3.375 0 0 Z " fill="#40880A" transform="translate(52,363)"/>
<path d="M0 0 C2.50298434 2.93828597 3.46930939 5.17902761 4 9 C1.24338912 6.51015791 -0.60746455 4.79450934 -1 1 C-0.67 0.67 -0.34 0.34 0 0 Z " fill="#56A611" transform="translate(408,172)"/>
<path d="M0 0 C0.99 0.33 1.98 0.66 3 1 C-2.75 6 -2.75 6 -5 6 C-3.63016497 2.83884224 -3.0109362 2.0072908 0 0 Z " fill="#57A811" transform="translate(165,143)"/>
<path d="M0 0 C0.66 0 1.32 0 2 0 C2 0.66 2 1.32 2 2 C1.34 2 0.68 2 0 2 C0 1.34 0 0.68 0 0 Z " fill="#458B0D" transform="translate(286,351)"/>
<path d="M0 0 C0.33 0.66 0.66 1.32 1 2 C0.01 1.67 -0.98 1.34 -2 1 C-1.34 0.67 -0.68 0.34 0 0 Z " fill="#559E12" transform="translate(173,141)"/>
<path d="M0 0 C3 1 3 1 3 1 Z " fill="#468C0E" transform="translate(302,343)"/>
<path d="M0 0 C0.99 0.495 0.99 0.495 2 1 C1.01 1.495 1.01 1.495 0 2 C0 1.34 0 0.68 0 0 Z " fill="#468C0D" transform="translate(314,335)"/>
<path d="" fill="#407D0E" transform="translate(0,0)"/>
<path d="M0 0 C0.33 0.66 0.66 1.32 1 2 C0.34 1.67 -0.32 1.34 -1 1 C-0.67 0.67 -0.34 0.34 0 0 Z " fill="#58A114" transform="translate(71,156)"/>
<path d="M0 0 C2 1 2 1 2 1 Z " fill="#336F0A" transform="translate(270,470)"/>
<path d="M0 0 C2 1 2 1 2 1 Z " fill="#40820D" transform="translate(307,414)"/>
<path d="M0 0 C2 1 2 1 2 1 Z " fill="#3F810D" transform="translate(339,405)"/>
<path d="M0 0 C2 1 2 1 2 1 Z " fill="#488F0F" transform="translate(246,362)"/>
<path d="M0 0 C2 1 2 1 2 1 Z " fill="#478E0E" transform="translate(224,362)"/>
<path d="M0 0 C2 1 2 1 2 1 Z " fill="#468D0C" transform="translate(70,330)"/>
<path d="M0 0 C2 1 2 1 2 1 Z " fill="#488E11" transform="translate(420,294)"/>
<path d="M0 0 C2 1 2 1 2 1 Z " fill="#468C0E" transform="translate(51,294)"/>
<path d="M0 0 C2 1 2 1 2 1 Z " fill="#478E10" transform="translate(426,293)"/>
<path d="" fill="#4B900F" transform="translate(0,0)"/>
<path d="" fill="#509712" transform="translate(0,0)"/>
<path d="" fill="#509610" transform="translate(0,0)"/>
<path d="" fill="#559E14" transform="translate(0,0)"/>
<path d="" fill="#57A212" transform="translate(0,0)"/>
<path d="M0 0 C2 1 2 1 2 1 Z " fill="#5AA314" transform="translate(265,126)"/>
<path d="M0 0 C2 1 2 1 2 1 Z " fill="#59A214" transform="translate(258,125)"/>
<path d="" fill="#59A213" transform="translate(0,0)"/>
<path d="M0 0 C2 1 2 1 2 1 Z " fill="#62AF17" transform="translate(300,71)"/>
<path d="M0 0 C2 1 2 1 2 1 Z " fill="#569A15" transform="translate(379,63)"/>
<path d="" fill="#36700B" transform="translate(0,0)"/>
<path d="" fill="#3D810B" transform="translate(0,0)"/>
<path d="" fill="#3E840D" transform="translate(0,0)"/>
<path d="" fill="#38730B" transform="translate(0,0)"/>
<path d="" fill="#3A790D" transform="translate(0,0)"/>
<path d="" fill="#43850E" transform="translate(0,0)"/>
<path d="" fill="#41850D" transform="translate(0,0)"/>
<path d="" fill="#43840E" transform="translate(0,0)"/>
<path d="" fill="#41830F" transform="translate(0,0)"/>
<path d="" fill="#3D7E0C" transform="translate(0,0)"/>
<path d="" fill="#40860C" transform="translate(0,0)"/>
<path d="" fill="#41860E" transform="translate(0,0)"/>
<path d="" fill="#41830D" transform="translate(0,0)"/>
<path d="" fill="#42850E" transform="translate(0,0)"/>
<path d="" fill="#3F860D" transform="translate(0,0)"/>
<path d="" fill="#3B770A" transform="translate(0,0)"/>
<path d="" fill="#3A770D" transform="translate(0,0)"/>
<path d="" fill="#488D0E" transform="translate(0,0)"/>
<path d="" fill="#488C0F" transform="translate(0,0)"/>
<path d="" fill="#478F0E" transform="translate(0,0)"/>
<path d="" fill="#478B0D" transform="translate(0,0)"/>
<path d="" fill="#468B0C" transform="translate(0,0)"/>
<path d="" fill="#468B0E" transform="translate(0,0)"/>
<path d="" fill="#478D0D" transform="translate(0,0)"/>
<path d="" fill="#3E7D0E" transform="translate(0,0)"/>
<path d="" fill="#3F800B" transform="translate(0,0)"/>
<path d="" fill="#468D0C" transform="translate(0,0)"/>
<path d="" fill="#458B0E" transform="translate(0,0)"/>
<path d="" fill="#458A0C" transform="translate(0,0)"/>
<path d="" fill="#40860E" transform="translate(0,0)"/>
<path d="" fill="#488D10" transform="translate(0,0)"/>
<path d="" fill="#43860C" transform="translate(0,0)"/>
<path d="" fill="#44870D" transform="translate(0,0)"/>
<path d="" fill="#428A0E" transform="translate(0,0)"/>
<path d="" fill="#468B0E" transform="translate(0,0)"/>
<path d="" fill="#438810" transform="translate(0,0)"/>
<path d="" fill="#498D0E" transform="translate(0,0)"/>
<path d="" fill="#498C0E" transform="translate(0,0)"/>
<path d="" fill="#458A10" transform="translate(0,0)"/>
<path d="" fill="#448B0F" transform="translate(0,0)"/>
<path d="" fill="#468C0E" transform="translate(0,0)"/>
<path d="" fill="#498E0F" transform="translate(0,0)"/>
<path d="" fill="#468C10" transform="translate(0,0)"/>
<path d="" fill="#478B10" transform="translate(0,0)"/>
<path d="" fill="#488D11" transform="translate(0,0)"/>
<path d="" fill="#458910" transform="translate(0,0)"/>
<path d="" fill="#468A0F" transform="translate(0,0)"/>
<path d="" fill="#488E11" transform="translate(0,0)"/>
<path d="" fill="#468C10" transform="translate(0,0)"/>
<path d="" fill="#478C0F" transform="translate(0,0)"/>
<path d="" fill="#478C0F" transform="translate(0,0)"/>
<path d="" fill="#458B0F" transform="translate(0,0)"/>
<path d="" fill="#44880F" transform="translate(0,0)"/>
<path d="" fill="#438011" transform="translate(0,0)"/>
<path d="" fill="#4C9010" transform="translate(0,0)"/>
<path d="" fill="#3E7A0E" transform="translate(0,0)"/>
<path d="" fill="#3E7B0C" transform="translate(0,0)"/>
<path d="" fill="#4A900D" transform="translate(0,0)"/>
<path d="" fill="#4A910C" transform="translate(0,0)"/>
<path d="" fill="#4D9211" transform="translate(0,0)"/>
<path d="" fill="#4B900F" transform="translate(0,0)"/>
<path d="" fill="#519510" transform="translate(0,0)"/>
<path d="" fill="#4F9610" transform="translate(0,0)"/>
<path d="" fill="#458911" transform="translate(0,0)"/>
<path d="" fill="#529712" transform="translate(0,0)"/>
<path d="" fill="#529811" transform="translate(0,0)"/>
<path d="" fill="#47840F" transform="translate(0,0)"/>
<path d="" fill="#4A8D11" transform="translate(0,0)"/>
<path d="" fill="#4E9311" transform="translate(0,0)"/>
<path d="" fill="#529812" transform="translate(0,0)"/>
<path d="" fill="#4F9511" transform="translate(0,0)"/>
<path d="" fill="#549912" transform="translate(0,0)"/>
<path d="" fill="#559F12" transform="translate(0,0)"/>
<path d="" fill="#569B12" transform="translate(0,0)"/>
<path d="" fill="#539D13" transform="translate(0,0)"/>
<path d="" fill="#539410" transform="translate(0,0)"/>
<path d="" fill="#519C14" transform="translate(0,0)"/>
<path d="" fill="#539B13" transform="translate(0,0)"/>
<path d="" fill="#539B14" transform="translate(0,0)"/>
<path d="" fill="#549E13" transform="translate(0,0)"/>
<path d="" fill="#559D12" transform="translate(0,0)"/>
<path d="" fill="#539D11" transform="translate(0,0)"/>
<path d="" fill="#57A116" transform="translate(0,0)"/>
<path d="" fill="#57A014" transform="translate(0,0)"/>
<path d="" fill="#579F11" transform="translate(0,0)"/>
<path d="" fill="#56A112" transform="translate(0,0)"/>
<path d="" fill="#59A012" transform="translate(0,0)"/>
<path d="" fill="#56A012" transform="translate(0,0)"/>
<path d="" fill="#539812" transform="translate(0,0)"/>
<path d="" fill="#59A112" transform="translate(0,0)"/>
<path d="" fill="#58A314" transform="translate(0,0)"/>
<path d="" fill="#58A013" transform="translate(0,0)"/>
<path d="" fill="#549D12" transform="translate(0,0)"/>
<path d="" fill="#59A413" transform="translate(0,0)"/>
<path d="" fill="#539912" transform="translate(0,0)"/>
<path d="" fill="#5AA315" transform="translate(0,0)"/>
<path d="" fill="#58A414" transform="translate(0,0)"/>
<path d="" fill="#5AA414" transform="translate(0,0)"/>
<path d="" fill="#5AA114" transform="translate(0,0)"/>
<path d="" fill="#5AA613" transform="translate(0,0)"/>
<path d="" fill="#5BA311" transform="translate(0,0)"/>
<path d="" fill="#59A712" transform="translate(0,0)"/>
<path d="" fill="#508F0F" transform="translate(0,0)"/>
<path d="" fill="#518F12" transform="translate(0,0)"/>
<path d="" fill="#4F8E11" transform="translate(0,0)"/>
<path d="" fill="#508F11" transform="translate(0,0)"/>
<path d="" fill="#518F11" transform="translate(0,0)"/>
<path d="" fill="#579E13" transform="translate(0,0)"/>
<path d="" fill="#589E14" transform="translate(0,0)"/>
<path d="" fill="#61AF12" transform="translate(0,0)"/>
<path d="" fill="#62AB14" transform="translate(0,0)"/>
<path d="" fill="#62AF14" transform="translate(0,0)"/>
<path d="" fill="#61B015" transform="translate(0,0)"/>
<path d="" fill="#62AF14" transform="translate(0,0)"/>
<path d="" fill="#62AA18" transform="translate(0,0)"/>
<path d="" fill="#63B115" transform="translate(0,0)"/>
<path d="" fill="#5AA015" transform="translate(0,0)"/>
<path d="" fill="#61AC15" transform="translate(0,0)"/>
<path d="" fill="#5CA013" transform="translate(0,0)"/>
<path d="" fill="#5BA012" transform="translate(0,0)"/>
<path d="" fill="#5C9F12" transform="translate(0,0)"/>
<path d="" fill="#569C13" transform="translate(0,0)"/>
<path d="" fill="#63B217" transform="translate(0,0)"/>
<path d="" fill="#64AF18" transform="translate(0,0)"/>
<path d="" fill="#63B215" transform="translate(0,0)"/>
<path d="" fill="#62AD14" transform="translate(0,0)"/>
<path d="" fill="#61AA17" transform="translate(0,0)"/>
<path d="" fill="#62AA15" transform="translate(0,0)"/>
<path d="" fill="#60A916" transform="translate(0,0)"/>
<path d="" fill="#60A514" transform="translate(0,0)"/>
</svg>
